<?xml version="1.0" standalone="no"?>
<!DOCTYPE svg PUBLIC "-//W3C//DTD SVG 20010904//EN"
 "http://www.w3.org/TR/2001/REC-SVG-20010904/DTD/svg10.dtd">
<svg version="1.0" xmlns="http://www.w3.org/2000/svg"
 width="700.000000pt" height="700.000000pt" viewBox="0 0 700.000000 700.000000"
 preserveAspectRatio="xMidYMid meet">
<metadata>
Created by potrace 1.11, written by Peter Selinger 2001-2013
</metadata>
<g transform="translate(0.000000,700.000000) scale(0.100000,-0.100000)"
fill="#000000" stroke="none">
<path d="M3342 6569 c-36 -14 -42 -40 -25 -105 26 -101 7 -173 -70 -260 -36
-41 -41 -53 -42 -96 0 -27 4 -48 10 -47 5 0 42 8 80 18 260 68 450 -75 491
-369 8 -54 7 -258 0 -320 -44 -352 -174 -614 -455 -919 l-49 -53 -5 28 c-4 16
-9 56 -12 89 -4 33 -8 74 -10 90 -2 17 -6 53 -9 80 -3 28 -8 69 -11 93 -6 54
-13 114 -21 177 -3 28 -7 66 -9 85 -3 19 -7 60 -10 90 -3 30 -8 73 -11 95 -3
22 -7 63 -10 90 -3 28 -7 61 -9 75 -3 25 -12 106 -20 185 -18 177 -29 252 -36
265 -13 23 -14 -1 -4 -95 3 -33 8 -76 10 -95 5 -48 14 -144 20 -215 3 -33 7
-71 10 -85 2 -14 7 -56 10 -95 3 -38 7 -86 10 -105 5 -41 12 -110 20 -195 3
-33 7 -85 11 -115 7 -75 11 -111 19 -205 4 -44 9 -87 10 -96 2 -8 6 -52 10
-97 l7 -82 -53 -47 c-29 -27 -62 -57 -73 -68 -18 -17 -111 -98 -276 -240 -113
-97 -283 -279 -337 -361 -75 -114 -111 -204 -94 -240 13 -29 32 -38 64 -30 16
4 35 29 66 88 94 180 207 286 575 537 82 56 150 100 152 98 2 -2 6 -38 9 -80
3 -42 8 -91 10 -109 3 -18 7 -64 11 -103 3 -38 7 -73 8 -76 0 -3 -42 -48 -95
-100 -109 -107 -174 -201 -228 -326 -90 -208 -106 -425 -50 -656 37 -156 72
-201 132 -171 32 17 33 38 12 154 -13 75 -14 298 0 370 24 131 87 257 177 355
70 75 80 81 83 47 1 -9 5 -51 9 -92 4 -41 9 -91 11 -110 2 -19 6 -57 9 -85 3
-27 8 -77 11 -110 9 -105 16 -169 20 -200 2 -16 7 -66 11 -110 3 -44 7 -87 9
-95 2 -8 6 -51 10 -95 4 -44 8 -90 10 -103 2 -12 7 -57 10 -100 4 -42 9 -86
11 -97 2 -10 6 -49 9 -85 3 -36 8 -74 10 -85 2 -11 7 -54 11 -95 3 -41 8 -78
10 -81 5 -8 -62 -30 -181 -59 -95 -24 -246 -31 -340 -17 -202 31 -384 155
-484 330 -120 210 -114 514 16 799 39 85 39 121 0 134 -49 17 -76 -5 -118 -96
-126 -270 -153 -565 -74 -795 38 -111 88 -188 185 -285 83 -84 108 -102 200
-148 183 -91 364 -121 595 -97 69 7 77 8 163 26 30 6 55 9 57 7 1 -1 6 -33 9
-70 4 -37 9 -77 11 -90 2 -13 6 -50 10 -83 3 -33 8 -80 11 -105 3 -25 7 -56
10 -69 3 -13 -3 -34 -13 -50 -19 -29 -20 -31 -27 -111 -19 -189 -25 -457 -15
-619 3 -52 9 -69 30 -92 63 -67 214 -61 293 13 15 14 21 31 21 66 0 105 -48
332 -121 572 -19 63 -38 123 -40 133 -3 9 -16 30 -29 45 -15 18 -25 47 -29 82
-4 30 -9 66 -11 80 -2 14 -7 59 -11 100 -3 41 -8 83 -9 92 -2 9 -6 43 -10 75
l-5 58 67 24 c367 131 735 444 913 774 74 137 143 333 158 452 9 67 8 239 -2
294 -51 297 -253 528 -544 625 -141 47 -330 65 -442 42 -166 -35 -303 -86
-363 -135 -9 -8 -19 -12 -21 -10 -2 2 -7 31 -10 64 -6 55 -11 97 -21 180 -2
17 -7 55 -10 85 l-6 55 93 70 c175 132 353 325 460 498 118 188 225 478 256
687 9 63 8 315 -1 375 -25 158 -92 333 -171 450 -89 131 -259 257 -420 310
-64 21 -158 33 -184 24z m628 -2968 c210 -71 356 -204 404 -371 41 -138 42
-327 3 -467 -93 -338 -386 -671 -732 -833 -37 -17 -70 -29 -73 -25 -4 3 -7 16
-8 28 0 12 -4 47 -8 77 -13 104 -14 115 -21 175 -3 33 -8 74 -10 90 -2 17 -6
59 -10 95 -4 36 -8 76 -10 90 -2 14 -7 52 -10 85 -5 54 -10 93 -20 165 -2 14
-7 54 -10 90 -3 36 -8 76 -10 90 -2 14 -7 52 -10 85 -3 33 -8 71 -10 85 -2 14
-6 50 -9 80 -3 30 -9 78 -12 105 -10 85 -12 98 -19 176 l-7 76 48 29 c65 39
120 63 196 84 89 25 250 21 338 -9z"/>
</g>
</svg>
