<?xml version="1.0" standalone="no"?>
<!DOCTYPE svg PUBLIC "-//W3C//DTD SVG 20010904//EN"
 "http://www.w3.org/TR/2001/REC-SVG-20010904/DTD/svg10.dtd">
<svg version="1.0" xmlns="http://www.w3.org/2000/svg"
 width="234.000000pt" height="234.000000pt" viewBox="0 0 234.000000 234.000000"
 preserveAspectRatio="xMidYMid meet">
<metadata>
Created by potrace 1.11, written by Peter Selinger 2001-2013
</metadata>
<g transform="translate(0.000000,234.000000) scale(0.100000,-0.100000)"
fill="#000000" stroke="none">
<path d="M1106 2322 c-3 -5 -4 -26 -3 -48 1 -27 -6 -50 -21 -71 -31 -44 -29
-65 6 -56 74 19 129 -3 166 -67 27 -46 30 -172 6 -265 -27 -106 -129 -266
-168 -264 -9 0 -12 3 -6 5 7 3 8 24 3 62 -13 96 -18 145 -24 207 -3 33 -8 71
-10 85 -2 14 -7 54 -11 90 -7 71 -11 83 -25 75 -11 -7 -12 -65 -1 -65 4 0 5
-21 3 -46 -2 -37 0 -45 10 -39 10 6 11 5 3 -4 -7 -7 -8 -34 -2 -78 4 -36 9
-81 10 -99 1 -19 5 -34 8 -34 3 0 5 -24 6 -52 0 -29 2 -75 4 -102 l3 -48 -69
-61 c-108 -95 -187 -178 -211 -223 -19 -35 -21 -43 -9 -59 12 -17 15 -16 40
24 15 23 44 59 66 80 51 50 190 145 190 131 0 -6 3 -9 8 -7 4 3 7 -24 6 -59 0
-58 -4 -68 -31 -97 -43 -45 -79 -107 -94 -158 -23 -86 -7 -243 27 -256 25 -9
31 9 25 72 -10 103 17 203 68 249 21 19 21 19 22 -10 0 -16 2 -36 3 -44 6 -31
19 -166 17 -188 0 -13 2 -21 7 -19 4 3 7 -20 8 -51 0 -79 13 -194 24 -213 12
-23 0 -36 -50 -49 -109 -29 -223 0 -286 73 -64 75 -76 182 -35 304 10 31 17
62 14 70 -22 56 -81 -73 -88 -192 -13 -222 175 -365 419 -319 l32 6 10 -82 c5
-45 6 -84 1 -89 -5 -5 -11 -69 -13 -142 -5 -164 2 -183 65 -187 80 -6 97 37
65 163 -8 33 -17 69 -19 80 -3 11 -14 43 -25 70 -21 54 -28 89 -29 148 -1 26
-5 36 -13 31 -7 -4 -8 -3 -4 4 4 7 34 25 66 41 172 86 290 214 339 371 72 226
-61 419 -294 428 -31 1 -76 -7 -118 -21 -37 -13 -69 -21 -72 -19 -3 3 -5 21
-5 39 0 22 -4 32 -11 27 -8 -4 -8 -1 -1 12 5 11 7 24 5 31 -2 7 36 52 85 101
72 72 97 105 131 173 22 46 48 113 57 149 40 158 3 323 -93 415 -54 52 -171
93 -187 67z m278 -1111 c100 -49 140 -152 113 -291 -8 -39 -58 -130 -97 -175
-60 -69 -178 -154 -194 -138 -3 3 -6 24 -6 45 0 22 -3 37 -7 35 -5 -3 -8 20
-9 51 -1 71 -14 203 -30 285 -1 9 -6 52 -9 96 l-6 78 33 16 c68 31 144 31 212
-2z"/>
</g>
</svg>
