<?xml version="1.0" standalone="no"?>
<!DOCTYPE svg PUBLIC "-//W3C//DTD SVG 20010904//EN"
 "http://www.w3.org/TR/2001/REC-SVG-20010904/DTD/svg10.dtd">
<svg version="1.0" xmlns="http://www.w3.org/2000/svg"
 width="1392.000000pt" height="1392.000000pt" viewBox="0 0 1392.000000 1392.000000"
 preserveAspectRatio="xMidYMid meet">
<metadata>
Created by potrace 1.11, written by Peter Selinger 2001-2013
</metadata>
<g transform="translate(0.000000,1392.000000) scale(0.100000,-0.100000)"
fill="#000000" stroke="none">
<path d="M6650 13839 c0 -5 4 -17 9 -27 10 -18 39 -128 40 -152 0 -8 2 -48 4
-89 5 -86 -12 -186 -44 -256 -21 -46 -76 -144 -88 -155 -4 -3 -22 -25 -42 -50
-21 -25 -51 -60 -68 -79 -40 -45 -39 -55 4 -37 19 8 35 13 35 11 0 -2 14 0 31
5 80 23 282 32 399 18 63 -8 191 -48 253 -79 120 -60 258 -183 331 -293 33
-51 107 -190 115 -217 3 -8 17 -52 33 -99 16 -47 31 -98 33 -115 3 -16 8 -41
10 -55 26 -126 36 -268 35 -480 0 -96 -3 -195 -5 -220 -2 -25 -7 -75 -10 -112
-5 -63 -10 -106 -20 -173 -3 -16 -7 -48 -11 -70 -5 -35 -50 -253 -58 -280 -2
-5 -6 -23 -10 -40 -4 -16 -10 -37 -13 -45 -9 -22 -9 -22 -17 -63 -5 -20 -12
-40 -17 -43 -5 -3 -7 -9 -4 -14 3 -5 1 -11 -5 -15 -5 -3 -10 -14 -10 -24 0
-40 -203 -501 -230 -521 -3 -3 -9 -12 -13 -21 -10 -28 -139 -234 -148 -237 -5
-2 -9 -8 -9 -13 0 -7 -64 -101 -112 -164 -45 -58 -149 -188 -176 -220 -147
-171 -378 -409 -385 -398 -5 8 -13 66 -22 157 -2 26 -6 65 -9 85 -3 20 -8 63
-12 96 -3 33 -8 71 -9 85 -2 14 -6 48 -9 75 -15 139 -18 162 -21 185 -2 14 -7
50 -10 80 -9 92 -16 154 -20 180 -2 14 -6 52 -10 85 -3 33 -10 96 -15 140 -5
44 -12 105 -16 135 -3 30 -7 69 -9 85 -2 17 -6 57 -10 90 -3 33 -8 71 -11 85
-3 14 -7 50 -9 80 -2 30 -7 75 -10 100 -4 25 -8 67 -10 94 -2 27 -9 81 -14
120 -6 39 -13 98 -16 131 -6 74 -13 136 -20 193 -10 83 -23 199 -30 272 -3 25
-8 68 -11 95 -3 28 -8 66 -10 85 -2 19 -6 60 -10 90 -3 30 -7 69 -9 85 -2 17
-6 57 -10 90 -3 33 -8 80 -11 105 -3 25 -7 61 -9 80 -3 19 -7 61 -10 94 -6 78
-13 98 -33 94 -13 -3 -17 -14 -16 -43 1 -40 10 -144 18 -200 2 -16 7 -64 11
-105 3 -41 8 -86 10 -100 2 -14 7 -61 10 -105 3 -44 8 -87 10 -95 2 -8 7 -48
10 -88 3 -40 7 -92 10 -115 2 -23 7 -69 11 -102 3 -33 7 -73 9 -90 2 -16 6
-64 10 -105 3 -41 8 -82 10 -90 2 -8 7 -54 10 -102 3 -47 8 -96 10 -107 2 -12
6 -54 10 -94 3 -39 7 -88 10 -107 2 -19 7 -69 10 -110 4 -41 8 -82 10 -90 2
-8 7 -51 10 -95 4 -44 8 -96 11 -115 2 -19 6 -63 8 -97 3 -34 7 -81 10 -105 5
-42 10 -95 21 -213 3 -33 8 -80 11 -105 8 -81 15 -144 19 -195 12 -138 15
-173 20 -210 2 -22 7 -67 10 -100 3 -33 8 -82 10 -110 13 -123 15 -144 20
-204 l5 -65 -58 -55 c-51 -49 -155 -143 -240 -219 -15 -13 -47 -40 -71 -60
-25 -20 -57 -48 -71 -62 -15 -14 -45 -41 -69 -60 -23 -19 -54 -46 -70 -60 -15
-14 -41 -36 -57 -50 -71 -60 -180 -155 -189 -164 -6 -6 -46 -42 -89 -81 -44
-38 -96 -86 -116 -105 -20 -19 -54 -51 -76 -71 -56 -52 -221 -225 -274 -288
-113 -133 -258 -344 -296 -431 -6 -14 -20 -46 -32 -71 -37 -81 -62 -149 -54
-149 4 0 30 49 57 107 47 101 138 262 154 273 4 3 12 12 17 21 44 80 261 303
429 443 166 139 503 386 525 386 6 0 10 5 10 10 0 6 8 14 18 18 17 7 192 122
202 132 3 3 52 37 110 76 58 39 141 96 184 127 44 31 81 55 82 54 2 -1 5 -32
9 -67 3 -36 7 -81 10 -100 3 -19 7 -66 10 -105 2 -38 7 -92 11 -120 3 -27 7
-68 9 -90 4 -43 13 -137 20 -197 9 -88 19 -206 19 -245 1 -24 3 -43 6 -43 3 0
6 -19 7 -42 0 -24 4 -66 7 -94 7 -49 6 -52 -26 -76 -105 -81 -295 -287 -376
-407 -20 -31 -40 -57 -44 -59 -5 -2 -8 -8 -8 -12 0 -5 -12 -26 -26 -47 -21
-31 -161 -302 -164 -318 -2 -11 -13 -42 -25 -75 -17 -41 -62 -194 -69 -230 -2
-14 -9 -47 -15 -75 -6 -27 -13 -63 -16 -80 -25 -134 -25 -485 0 -624 3 -16 7
-49 10 -72 16 -124 70 -327 110 -416 14 -29 25 -58 25 -64 0 -6 5 -7 11 -4 6
4 7 14 4 24 -8 18 -10 28 -20 91 -4 25 -9 54 -11 65 -5 25 -14 89 -19 135 -2
19 -7 62 -11 95 -14 128 -8 471 11 565 3 14 7 43 10 65 3 22 7 51 10 65 23
114 22 109 25 113 1 1 3 10 6 20 2 9 6 25 8 35 3 9 5 18 6 20 2 1 3 5 4 10 12
69 157 375 197 418 10 11 19 24 19 28 0 46 407 456 412 415 0 -8 2 -25 4 -39
2 -14 6 -52 8 -85 3 -33 8 -78 11 -100 3 -22 7 -62 10 -90 7 -90 15 -179 21
-217 2 -20 7 -65 9 -100 2 -35 6 -72 9 -84 2 -11 7 -59 11 -107 3 -48 8 -97
10 -109 2 -13 6 -54 10 -93 3 -38 7 -88 10 -110 3 -22 7 -69 10 -105 3 -36 7
-76 10 -90 2 -14 7 -56 9 -95 3 -38 8 -86 11 -105 3 -19 7 -66 10 -105 2 -38
7 -80 9 -92 3 -12 7 -54 10 -92 3 -38 8 -84 11 -103 3 -18 7 -64 10 -102 2
-38 7 -83 9 -100 3 -17 8 -58 11 -91 3 -33 7 -76 10 -95 2 -19 6 -64 10 -100
3 -36 8 -83 11 -105 2 -22 7 -60 9 -85 4 -53 15 -154 20 -190 3 -22 8 -70 19
-190 2 -19 6 -53 9 -75 4 -22 9 -71 12 -110 3 -38 8 -83 10 -100 2 -16 7 -55
10 -86 3 -31 7 -65 9 -75 2 -11 7 -55 11 -99 4 -44 8 -93 10 -108 2 -15 6 -58
10 -96 l6 -67 -103 -32 c-94 -29 -206 -59 -251 -68 -10 -2 -27 -6 -37 -9 -19
-6 -46 -12 -95 -20 -16 -3 -37 -8 -45 -10 -8 -2 -40 -7 -70 -10 -30 -4 -73 -8
-95 -11 -46 -6 -313 -6 -365 0 -123 13 -243 36 -345 66 -89 26 -85 25 -118 38
-16 7 -30 12 -31 12 -2 0 -21 8 -42 17 -22 9 -41 17 -44 18 -41 9 -243 135
-335 208 -107 86 -285 277 -285 306 0 6 -4 11 -8 11 -7 0 -116 175 -118 189 0
3 -14 35 -31 71 -28 59 -37 81 -42 102 -1 4 -8 23 -16 42 -33 78 -70 246 -91
411 -5 40 -5 227 0 290 5 65 23 202 31 245 3 14 7 41 9 60 10 83 87 364 123
450 3 8 7 17 8 20 1 3 7 18 13 33 7 16 12 30 12 33 0 3 24 54 54 114 32 64 50
110 42 110 -13 0 -129 -224 -141 -270 0 -3 -6 -15 -13 -27 -6 -12 -13 -30 -15
-40 -2 -10 -10 -31 -16 -48 -7 -16 -15 -37 -17 -45 -2 -8 -18 -60 -35 -115
-17 -55 -33 -113 -36 -130 -3 -16 -9 -38 -15 -48 -5 -10 -7 -21 -4 -24 2 -3 1
-16 -5 -30 -9 -23 -12 -45 -25 -143 -3 -25 -10 -65 -14 -89 -9 -51 -6 -458 4
-511 38 -197 86 -339 172 -515 89 -183 233 -365 399 -504 102 -85 286 -197
408 -246 34 -14 71 -30 82 -34 33 -15 76 -29 154 -51 81 -24 93 -27 166 -40
28 -5 59 -11 70 -13 20 -5 120 -17 185 -23 48 -4 356 -4 405 1 151 14 247 25
254 30 3 2 30 6 58 10 29 3 67 10 84 15 18 5 36 7 40 4 5 -3 9 -1 9 4 0 6 6 9
13 8 6 0 36 5 65 13 29 7 56 11 59 8 6 -7 10 -35 27 -192 4 -33 9 -76 12 -95
3 -19 7 -55 9 -80 6 -69 20 -192 35 -310 5 -41 12 -100 15 -130 3 -30 8 -71
10 -90 8 -58 16 -132 20 -191 3 -49 0 -59 -21 -83 -37 -39 -51 -82 -58 -176
-4 -47 -9 -101 -12 -121 -2 -19 -7 -69 -9 -110 -3 -40 -7 -94 -9 -119 -15
-164 -20 -339 -21 -650 0 -586 12 -646 141 -714 134 -70 301 -73 449 -8 68 30
65 28 122 77 43 37 75 101 76 152 0 28 -9 116 -18 163 -4 25 -13 81 -20 130
-6 42 -16 94 -20 110 -2 8 -7 35 -10 60 -4 24 -8 47 -10 51 -2 3 -7 19 -9 35
-10 51 -14 68 -25 111 -6 22 -15 61 -20 84 -5 24 -19 80 -31 124 -12 44 -23
87 -25 95 -4 20 -60 213 -96 335 -99 326 -114 364 -154 385 -11 6 -27 21 -34
32 -17 28 -20 44 -36 208 -4 36 -9 79 -11 95 -4 31 -12 105 -18 165 -2 19 -7
60 -10 90 -4 30 -8 75 -11 100 -2 25 -6 61 -9 80 -3 19 -8 62 -11 95 -3 33 -8
78 -10 100 -11 87 -15 123 -21 185 l-6 66 84 28 c297 99 724 327 963 514 6 4
35 26 66 49 31 23 62 48 70 55 8 8 23 20 35 28 99 70 391 359 514 510 25 30
47 57 50 60 34 33 198 270 257 370 42 72 173 332 173 344 0 2 6 19 14 37 8 19
14 37 15 42 0 4 7 20 15 35 38 74 156 468 170 572 27 186 27 502 0 625 -2 11
-6 31 -8 45 -12 70 -48 205 -76 280 -34 95 -137 307 -160 330 -3 3 -19 25 -35
50 -17 25 -34 50 -40 56 -5 6 -34 39 -64 74 -45 52 -95 101 -165 165 -6 6 -40
32 -76 58 -36 27 -72 53 -81 60 -76 58 -362 193 -449 212 -8 2 -35 10 -60 19
-44 15 -101 29 -170 41 -46 9 -65 13 -65 15 0 1 -16 3 -35 5 -19 1 -66 7 -105
11 -109 13 -359 7 -445 -11 -14 -2 -40 -7 -57 -10 -80 -12 -100 -17 -138 -27
-22 -6 -44 -12 -50 -13 -152 -32 -448 -165 -603 -270 -20 -13 -37 -23 -38 -22
-3 3 -15 76 -19 117 -2 19 -7 63 -10 98 -4 35 -8 71 -10 81 -2 10 -6 44 -9 76
-4 32 -9 72 -11 89 -3 17 -7 54 -9 81 -5 52 -11 110 -22 193 -4 26 -8 61 -9
77 -3 35 -14 125 -20 175 -3 19 -7 60 -10 92 l-6 56 63 48 c35 26 71 56 81 66
10 10 21 18 25 18 4 0 21 12 37 26 17 14 52 44 80 67 240 202 483 449 622 633
20 27 39 51 43 54 13 12 140 191 140 199 0 4 9 16 20 26 11 10 20 22 20 26 0
5 17 35 37 66 58 91 164 293 216 413 8 19 24 56 36 82 11 26 21 54 21 61 0 7
4 17 9 22 8 9 98 258 106 295 2 8 21 76 43 151 66 224 100 406 118 639 11 151
1 440 -20 560 -29 163 -49 255 -81 364 -42 148 -126 346 -213 503 -74 134
-254 343 -387 450 -147 119 -374 243 -540 296 -151 48 -345 80 -345 56z m1096
-6313 c108 -12 143 -18 230 -42 178 -47 346 -121 493 -217 182 -120 315 -247
418 -402 37 -54 111 -194 114 -212 2 -13 10 -36 20 -62 6 -13 19 -62 30 -110
26 -108 25 -105 34 -171 4 -30 10 -66 12 -80 12 -82 17 -329 8 -415 -12 -114
-18 -156 -31 -225 -9 -41 -18 -88 -21 -105 -12 -71 -115 -351 -155 -423 -10
-18 -18 -36 -18 -41 0 -15 -124 -237 -187 -335 -58 -89 -162 -232 -195 -268
-7 -7 -42 -47 -78 -88 -104 -120 -297 -309 -399 -390 -24 -19 -48 -40 -55 -45
-6 -6 -38 -31 -71 -55 -33 -25 -62 -47 -65 -50 -14 -14 -102 -70 -110 -70 -6
0 -10 -3 -10 -8 0 -4 -17 -16 -37 -27 -21 -11 -56 -32 -79 -47 -41 -28 -279
-149 -289 -148 -3 0 -18 -6 -33 -15 -38 -21 -121 -55 -136 -55 -7 0 -12 10
-13 23 -2 40 -13 151 -18 175 -2 13 -7 51 -10 85 -3 34 -8 76 -10 92 -2 17 -6
57 -10 90 -3 33 -8 71 -10 85 -3 14 -8 52 -11 85 -3 33 -7 74 -9 90 -2 17 -6
57 -9 90 -3 33 -8 69 -10 80 -2 11 -7 54 -11 95 -4 41 -9 84 -11 95 -2 11 -6
49 -9 86 -3 36 -8 77 -10 90 -3 13 -7 49 -10 79 -3 30 -7 66 -9 80 -2 14 -7
52 -10 85 -4 33 -9 74 -11 90 -7 60 -15 131 -20 175 -4 43 -9 82 -20 180 -3
25 -8 68 -10 95 -3 28 -8 68 -11 90 -7 56 -12 101 -19 165 -4 30 -8 66 -10 80
-2 14 -6 54 -10 90 -4 36 -8 76 -10 90 -2 14 -7 48 -10 75 -3 28 -8 73 -11
100 -3 28 -7 64 -9 80 -1 17 -6 55 -10 85 -3 30 -8 78 -10 105 -2 28 -5 50 -5
50 -2 0 -6 30 -14 105 -4 36 -9 76 -11 90 -2 14 -7 52 -10 85 -4 33 -9 76 -11
95 -6 47 -13 110 -18 163 -3 23 -7 60 -10 82 -16 114 -17 145 -4 158 67 65
431 222 562 241 21 4 41 8 45 10 4 3 27 7 51 10 131 15 155 18 157 20 4 3 186
-3 229 -8z"/>
</g>
</svg>
