<?xml version="1.0" encoding="UTF-8"?>
<!DOCTYPE svg PUBLIC "-//W3C//DTD SVG 1.1//EN" "http://www.w3.org/Graphics/SVG/1.1/DTD/svg11.dtd">
<!-- Creator: CorelDRAW 2017 -->
<svg xmlns="http://www.w3.org/2000/svg" xml:space="preserve" width="35mm" height="92mm" version="1.1" style="shape-rendering:geometricPrecision; text-rendering:geometricPrecision; image-rendering:optimizeQuality; fill-rule:evenodd; clip-rule:evenodd"
viewBox="0 0 3500 9200"
 xmlns:xlink="http://www.w3.org/1999/xlink">
 <defs>
  <style type="text/css">
   <![CDATA[
    .fil0 {fill:#FEFEFE}
    .fil1 {fill:#2B2A29}
   ]]>
  </style>
 </defs>
 <g id="Слой_x0020_1">
  <metadata id="CorelCorpID_0Corel-Layer"/>
  <path class="fil0" d="M1152.77 1031.16c235.1,2259.34 422.22,4513.06 690.45,6768.7 4.42,37.17 0.41,45.79 -4.48,54.89 -3.54,6.57 -8.06,11.14 -12.32,15.11 -19.35,18.06 -31.19,42.98 -32.21,63.74 -31.94,351.84 -61.86,724.99 -24.36,1077.34 11.79,110.83 159.57,151.09 270.34,140.02l0 0.02 1.33 -0.15 1.33 -0.14 0 -0.01c110.58,-12.82 246.54,-83.7 234.74,-194.53 -37.49,-352.35 -145.25,-710.64 -250.5,-1047.68 -5.3,-19.84 -22.95,-39.66 -44.12,-54.96 -12.66,-9.15 -26.79,-18.06 -31.28,-59.4 -245.86,-2256.14 -523.7,-4511.37 -769.11,-6767.54 -3.78,-35.62 -33.6,-31.04 -29.81,4.59z"/>
  <path class="fil0" d="M214.99 4571.93c-0.11,0.34 -0.44,0.87 -0.56,1.14 -1.87,4.23 -8.07,1.45 -7.28,-1.14 295.34,-944.4 2159.9,-1382.51 2052.47,-3268.58 -28.23,-495.74 -339.8,-840.68 -865.68,-692.32l0.01 -0.03c-1.15,0.63 -4.32,-1.79 -0.58,-5.33 83.09,-86.02 158.43,-175.95 178.8,-290.86 16.24,-91.67 3.62,-181.83 -31.13,-269.67 -1,-2.06 -0.82,-4.49 1.44,-4.49 283.59,10.23 652.92,209.78 840.43,536.74 202.9,353.79 282.1,834.14 138.27,1340.7 -63.92,225.11 -151.29,477.22 -304.68,721.84 -546.69,871.83 -1414.42,1079.9 -1852.2,1659.63 -22.04,26.21 -38.41,53.6 -55.61,81.88 -34.78,57.2 -64.69,119.23 -93.7,190.49z"/>
  <path class="fil0" d="M62.24 6192.93c8,43.18 15.38,81.94 27.27,122.74 13.6,46.63 29.79,95.14 49.71,140 54.98,123.83 132.87,239.9 233.04,335.77 140.39,134.37 313.28,225.34 505.59,268.99 193.29,43.86 398,44.9 611.31,-6.06 432.47,-103.34 860.85,-277.98 1284.05,-787.66 178.88,-215.42 309.29,-495.17 357.28,-691.29 60.82,-248.53 48.01,-489.81 -9.58,-700.37 -83.96,-306.96 -363.79,-524.21 -664,-615.73 -287.06,-87.52 -602.15,-36.91 -872.63,136.67 -102.86,66.01 -192.29,143.51 -269.68,226.84 -57.43,61.82 -106,127.52 -144.9,197.47 -8.33,14.97 -16.73,29.22 -24.55,44.41 -4.51,8.72 -8.83,17.77 -12.83,27.46 -7.52,18.13 -15.94,34.81 -23.43,52.93 -14.72,35.63 -28.09,73.02 -39.26,111.01 -29.41,100 -45.86,207.66 -52.3,313.3 -10.65,174.67 4.37,322.03 45.82,533.9 0.62,5.03 -4.26,5.09 -5.92,1.69 -68.75,-132.27 -98.6,-313.26 -112.04,-473.74 -60.71,-725.23 513.74,-1487.3 1394.03,-1487.3 61.64,3.19 136.04,11.33 214.37,25.98 121.95,22.81 251.25,70.69 317.24,103.25 37.31,18.42 74.31,37.82 108.43,59.2 153.73,96.29 273.03,221.04 351.91,352.97 94.3,157.76 150.27,348.1 159.5,550.17 2.6,56.99 0.36,114.06 -4.21,172.38 -3.68,46.96 -8,95 -19.35,142.78 -57.69,242.78 -157.68,514.89 -319.93,748.92 -409.17,590.16 -1139.08,1058.57 -1918.05,1058.57 -56.09,-3.4 -105.63,-2 -157.65,-7.89 -90.89,-10.29 -177.81,-25.69 -254.55,-49.13 -136.36,-41.65 -242.6,-92.62 -337.55,-157.73 -83.31,-57.15 -152.7,-121.6 -214.69,-193.71 -95.04,-110.53 -152.88,-227.22 -200.62,-370.34 -37.17,-111.47 -54.85,-238.64 -51.36,-385.09 4.19,-175.3 38.33,-317.66 72.1,-429.97 70.95,-236.01 146.71,-347.37 152.93,-358.88 3.17,-5.88 13.93,-2.49 11.42,2.21 -132.07,246.8 -183.8,472.69 -203.5,748.28 -7.6,106.2 10.53,204.4 16.58,237z"/>
  <path class="fil1" d="M1835.3 8145.31c-24.77,272.87 -36.4,562.28 -7.32,835.56 9.15,85.96 123.77,117.18 209.68,108.6 4.48,-3.35 4.3,-7.81 -2.78,-10.27 -71.83,-7.51 -143.2,-41.25 -150.34,-108.33 -28.68,-287.1 -43.98,-545.49 -37.46,-825.08 0.71,-30.56 -8.65,-64.42 -11.78,-0.48z"/>
 </g>
</svg>
