<svg xmlns="http://www.w3.org/2000/svg" width="433" height="433" style=""><rect id="backgroundrect" width="100%" height="100%" x="0" y="0" fill="none" stroke="none"/>

 <g style="">
  <title>background</title>
  <rect fill="none" id="canvas_background" height="435" width="435" y="-1" x="-1"/>
 </g>
 <g style="" class="currentLayer">
  <title>Layer 1</title>
  <g id="svg_10"/>
  <path id="svg_24" d="m91.7523,6.426c1.6702,-1.7192 1.7906,-4.4215 0.2892,-6.2902c-1.1494,-1.4315 -3.3128,-1.5293 -4.5609,-0.1825c-87.502,94.4523 37.4908,169.3458 14.6439,244.1667c-0.9321,3.0506 -0.28,6.3623 1.8616,8.7257l0.2399,0.2643c1.2622,1.3934 3.4708,1.2887 4.6026,-0.2132c6.2703,-8.3209 22.5075,-34.5738 9.2136,-69.2567c-15.9979,-41.7411 -99.5043,-101.844 -26.2899,-177.2141zm78.8953,173.5915c8.7739,-10.5693 17.6415,-18.6649 25.3655,-26.7342c0.7891,12.5308 1.3692,22.8937 1.6083,27.2657c0.0602,1.1303 1.182,1.8801 2.2554,1.5192c0.7641,-0.2571 1.2455,-1.0027 1.1569,-1.804c-0.4163,-3.7303 -1.61,-14.8159 -2.8288,-29.3091c23.3913,-27.1486 32.6849,-49.1646 14.2376,-98.7278c-29.9596,-80.4938 -24.6517,11.1893 -21.3179,39.7816c1.192,10.2333 2.379,24.7696 3.4106,39.218c-5.4503,7.5467 -11.0945,13.7882 -16.3199,20.0581l-0.0017,0.0008c-0.005,0.0064 -0.01,0.013 -0.015,0.0194c-5.2739,6.3284 -10.1173,12.7026 -13.8999,20.5052c-3.4557,6.1348 -6.5938,12.8169 -9.2404,20.1212c1.7404,-39.6816 -19.6194,-54.5807 -10.8897,-75.731c2.1768,-5.2734 1.5353,-9.7313 -0.2667,-13.3887c-2.918,-5.9227 -8.8735,-3.7051 -6.8931,-8.6015c0.0025,-0.0057 0.0033,-0.0105 0.0058,-0.0162l-0.0017,0.0007c0.8058,-2.7007 0.0349,-4.2621 -2.1776,-3.7925c-7.2798,1.5451 -9.7464,14.3014 -9.854,21.9575c-0.1245,29.9418 33.7382,51.0839 25.5444,94.8823c-5.2288,24.918 -5.8307,49.2534 1.819,76.3021c0.3079,1.089 1.9569,0.7258 1.7964,-0.3943c-3.1939,-22.218 -7.4689,-74.2485 16.5065,-103.1325zm24.7536,-111.486c0.2572,-12.8586 5.8331,-16.961 10.7834,-11.0378c6.8456,9.0054 11.1498,28.6789 1.2942,51.1769c-3.3588,7.6661 -7.0837,14.0625 -10.9457,19.7121c-1.2656,-19.9428 -1.4883,-42.027 -1.1319,-59.8512zm-53.0274,28.729c1.1452,0.2109 2.4066,-2.1807 1.3575,-3.0425c-1.0483,-0.8617 -2.2838,-0.8372 -2.8789,-0.1841c-0.5952,0.653 -2.6532,2.4578 1.5214,3.2266zm182.1455,81.1527c-0.117,-3.0778 -2.4091,-5.6302 -5.4519,-6.1154c-56.1747,-8.9599 -86.0426,5.5329 -98.0315,13.963c-3.8085,2.6775 -4.8384,7.8679 -2.3757,11.8177l3.4373,5.5108c2.8147,4.2385 16.5291,4.8654 16.6835,4.8718c27.0697,1.1248 42.8349,12.3503 45.5901,29.057c-15.6336,-6.3417 -39.1467,-8.5069 -73.3213,0.8378c-1.5866,-13.5042 -3.4357,-27.3736 -5.6008,-41.8591c-0.2006,-1.3472 -2.0163,-1.6623 -2.6449,-0.4541c-1.5247,2.9259 -1.9979,6.2744 -1.3425,9.5075c1.2472,6.14 3.434,17.8424 5.6308,33.9063c-5.9953,1.754 -11.1346,4.0069 -15.5684,6.6044c-0.7022,0.5765 0.8729,0.8937 2.5813,0.2148c3.9155,-1.6034 8.346,-3.0475 13.3264,-4.3001c2.471,18.5985 4.8852,42.675 5.9201,70.5732c-19.0376,-1.4594 -35.9125,-13.0737 -42.0199,-26.8052c-0.4131,-0.9214 -1.3099,-1.9918 -1.0257,0.3616c2.6457,19.7888 20.0173,37.5159 43.3498,36.2944c0.1371,5.6635 0.2173,11.459 0.2257,17.3911c0.0017,2.0282 -0.0451,4.0697 -0.1354,6.12c-35.0105,-8.2943 -48.4949,-37.506 -50.9618,-43.622c-0.2474,-0.6125 -0.637,-1.1394 -1.1001,-1.6023c-0.8627,-0.6171 -0.5517,1.5494 0.8192,4.7071c3.872,8.6671 13.186,24.8036 32.0914,35.3892c5.885,3.2946 12.2548,5.9177 19.0292,7.4081c-1.7655,30.2548 -12.1461,62.0189 -8.448,80.3542c0.525,2.6028 3.2317,4.1299 5.7027,3.162c1.4361,-0.5621 2.5345,-1.7491 2.9592,-3.2311c1.9695,-6.861 7.0218,-29.1465 5.579,-73.4821c-0.0635,-1.9651 -0.1354,-3.9079 -0.2056,-5.8585c23.0734,2.7856 50.3148,-8.1353 78.7983,-49.3932c7.7725,-11.2599 9.9159,-19.8359 10.5077,-23.709c0.1655,-1.093 -0.8463,-1.9821 -1.9176,-1.708c-3.1463,0.8048 -2.7856,-2.9316 -2.8455,-4.5688c-0.0483,-1.322 -1.0867,-3.1373 -1.3208,-0.9362c-0.6286,5.868 -0.9764,9.8569 -11.0845,24.8776c-15.1956,22.3829 -43.0238,56.8595 -68.6184,53.8182c-1.2221,-0.1451 -2.4158,-0.3197 -3.5928,-0.5126c-0.311,-8.4538 -0.6754,-16.7857 -1.1034,-25.0521c11.8635,-1.7872 25.0462,-8.4392 38.498,-22.0031c21.674,-21.8543 31.4411,-40.0553 33.0009,-54.7117c5.3483,4.0057 8.6001,8.8837 10.3087,13.8796c0.6704,1.9602 2.2838,3.453 4.2466,4.1185c3.2869,1.1149 6.2795,-2.3766 4.621,-5.4255c-3.1615,-5.811 -9.1518,-12.6337 -18.9639,-17.8027c-0.6701,-23.0909 -23.1122,-36.2692 -50.0423,-40.0136c-2.4595,-0.3815 -3.4201,-1.1106 -1.9538,-2.1708c26.724,-17.9984 63.2148,-15.4502 77.3249,-13.5896c3.2105,0.4671 3.281,1.6731 0.1423,2.5534l-3.5248,0.9885c-1.5043,0.4246 -1.3771,1.6619 1.5423,1.9841c0.0004,0 3.3448,0.3692 3.3448,0.3692c4.4354,0.4895 8.269,-3.0764 8.0985,-7.5355c-0.053,-1.4256 -0.1082,-2.8671 -0.1584,-4.1788zm-70.5192,119.0906c-11.3118,10.7963 -24.2036,15.17 -36.4734,15.2078c-1.3793,-23.7112 -3.3404,-47.1142 -6.1709,-71.67c37.2976,-8.4954 60.1186,-5.9282 73.4384,1.1838c0.3176,15.5318 -9.5297,34.9821 -30.7941,55.2784zm-96.9038,-8.0845c-0.6754,-1.2189 -1.5298,-1.6223 -1.9669,-0.7207l-0.1806,0.3728c-0.2859,0.5925 -0.2187,1.3163 0.2424,1.786c0.8944,0.9111 2.0159,2.6483 2.5906,4.8679c0.363,1.4023 0.2834,2.1783 1.172,1.5666c0.5743,-0.4153 0.8158,-1.1491 0.5985,-1.8251c-0.4439,-1.3869 -1.2932,-3.8 -2.456,-6.0475zm31.5004,-42.1438c-1.2405,0.5578 -3.3521,3.2473 -5.2446,4.1417l-0.1404,0.0732c-0.3929,0.1895 0.0167,0.6186 0.55,0.2624c0,-0.0005 0,-0.0004 0.0017,-0.0009c0.764,-0.5167 2.7469,-1.8289 4.8333,-2.9652c2.66,-1.447 1.3409,-2.1139 0,-1.5112zm-8.4596,6.8649c-9.6776,7.6517 -12.5674,16.8891 -10.7334,25.7563c0.2307,0.8789 0.5628,0.3526 0.6119,-1.1248c0.4548,-8.3415 3.6388,-16.6792 10.2034,-23.7979c0.6942,-0.7148 0.8661,-1.5565 -0.0819,-0.8336z" fill="#ffffff" class="selected" fill-opacity="1"/>
 </g>
</svg>